
        <svg xmlns="http://www.w3.org/2000/svg" xmlns:xlink="http://www.w3.org/1999/xlink" version="1.1" width="3166.6666666666665" 
        height="1466.6666666666667" viewBox="0 0 3166.6666666666665 1466.6666666666667">
			
			<g transform="scale(8.333333333333334) translate(10, 10)">
				<defs id="SvgjsDefs4161"></defs><g id="SvgjsG4162" featureKey="rootContainer" transform="matrix(1,0,0,1,0,0)" fill="#ffffff"><rect xmlns="http://www.w3.org/2000/svg" width="360" height="156" rx="10" ry="10"></rect></g><g id="SvgjsG4163" featureKey="symbolFeature-0" transform="matrix(0.19535066187381744,0,0,0.19535066187381744,11.853876978679663,19.865989086760663)" fill="#c92735"><path xmlns="http://www.w3.org/2000/svg" d="M433,41.8c60.8,0,110.2,49.4,110.2,110.2v19.4c0,3.5-2.9,6.4-6.4,6.4H123.4c-11.1,0-20.2-9.1-20.2-20.2V152  c0-60.8,49.4-110.2,110.2-110.2H433 M433,31.4H213.4c-66.6,0-120.6,54-120.6,120.6v5.6c0,16.9,13.7,30.5,30.5,30.5h413.5  c9.2,0,16.7-7.5,16.7-16.7V152C553.6,85.4,499.6,31.4,433,31.4L433,31.4z"></path><path xmlns="http://www.w3.org/2000/svg" d="M345,217.6v123.1c0,80.8-65.7,146.5-146.5,146.5C117.7,487.1,52,421.4,52,340.7V217.6H345 M355.3,207.2H41.7v133.4  c0,86.6,70.2,156.8,156.8,156.8h0c86.6,0,156.8-70.2,156.8-156.8V207.2L355.3,207.2z"></path><path xmlns="http://www.w3.org/2000/svg" d="M543.3,217.6v294.5v41.4H103.2v-31.1h288.7c11,0,19.9-8.9,19.9-19.9v-285H543.3 M544,207.2H411c-5.3,0-9.6,4.3-9.6,9.6  v285.7c0,5.3-4.3,9.6-9.6,9.6H102.4c-5.3,0-9.6,4.3-9.6,9.6v32.6c0,5.3,4.3,9.6,9.6,9.6H544c5.3,0,9.6-4.3,9.6-9.6v-42.2V216.8  C553.6,211.5,549.3,207.2,544,207.2L544,207.2z"></path></g><g id="SvgjsG4164" featureKey="nameFeature-0" transform="matrix(1.90839684009552,0,0,1.90839684009552,136.1832098579928,5.4198470976197015)" fill="#c92735"><path d="M2 40 l0 -32 l3.6 0 l4.2 20 l0.4 0 l4.2 -20 l3.6 0 l0 32 l-4 0 l0 -16 l-2.84 16 l-2.4 0 l-2.76 -16 l0 16 l-4 0 z M22 40 l0 -32 l4 0 l0 32 l-4 0 z M28.8 40 l4 -16.08 l-3.6 -15.92 l4 0 l1.6 11.2 l0.4 0 l1.6 -11.2 l4 0 l-3.6 14.84 l4 17.16 l-4 0 l-2 -11.32 l-0.4 0 l-2 11.32 l-4 0 z M44 40 l0 -32 l9.2 0 l0 3.2 l-5.2 0 l0 10.4 l4.4 0 l0 3.2 l-4.4 0 l0 11.2 l5.2 0 l0 4 l-9.2 0 z M56 40 l0 -32 l6.48 0 c4.12 0 5.52 2.52 5.52 7.36 c0 4.36 -0.52 6.84 -1.76 8.04 l0 0.24 c1.04 0.36 1.36 2.24 1.76 6.92 l0.8 9.44 l-4 0 l-0.52 -9.44 c-0.28 -4.76 -1 -5.76 -2.2 -5.76 l-2.08 0 l0 15.2 l-4 0 z M60 21.6 l2.48 0 c1.4 0 1.8 -1.4 1.8 -6.24 c0 -3.16 -0.6 -4.16 -1.8 -4.16 l-2.48 0 l0 10.4 z M72 40 l0 -16.8 c0 -11.16 0 -15.56 6 -15.56 s6 4.4 6 15.56 l0 16.8 l-4 0 l0 -9.2 l-4 0 l0 9.2 l-4 0 z M76 27.6 l4 0 l0 -4.4 c0 -10.4 0 -12.36 -2 -12.36 s-2 1.96 -2 12.36 l0 4.4 z M88 40 l0 -32 l6.48 0 c4.12 0 5.2 2.52 5.52 8.56 l0 1.28 c-0.32 6.04 -1.4 8.56 -5.52 8.56 l-2.48 0 l0 13.6 l-4 0 z M92 23.2 l2.48 0 c1.2 0 1.64 -1 1.8 -5.36 l0 -1.28 c-0.16 -4.36 -0.6 -5.36 -1.8 -5.36 l-2.48 0 l0 12 z M102.8 40 l0 -32 l4 0 l0 32 l-4 0 z"></path></g><g id="SvgjsG4165" featureKey="sloganFeature-0" transform="matrix(2.7118642330169678,0,0,2.7118642330169678,137.28813576855833,81.69491540327458)" fill="#323233"><path d="M1 20 l0 -16 l3.24 0 c2.06 0 2.76 1.26 2.76 3.68 c0 2.18 -0.26 3.42 -0.88 4.02 l0 0.12 c0.52 0.18 0.68 1.12 0.88 3.46 l0.4 4.72 l-2 0 l-0.26 -4.72 c-0.14 -2.38 -0.5 -2.88 -1.1 -2.88 l-1.04 0 l0 7.6 l-2 0 z M3 10.8 l1.24 0 c0.7 0 0.9 -0.7 0.9 -3.12 c0 -1.58 -0.3 -2.08 -0.9 -2.08 l-1.24 0 l0 5.2 z M9 20 l0 -16 l4.6 0 l0 1.6 l-2.6 0 l0 5.2 l2.2 0 l0 1.6 l-2.2 0 l0 5.6 l2.6 0 l0 2 l-4.6 0 z M14.6 15.120000000000001 l2.02 0 c0.04 2.58 0.24 3.08 0.96 3.08 c0.98 0 0.98 -0.82 0.98 -3 c0 -3.2 -3.96 -2.34 -3.96 -6.6 c0 -2.5 0 -4.8 3 -4.8 c2.22 0 2.82 1.26 2.96 4.28 l-2 0 c-0.08 -2.18 -0.32 -2.68 -0.96 -2.68 c-0.98 0 -0.98 1.08 -0.98 3.2 c0 3.1 3.98 2 3.98 6.6 c0 2.8 0 5 -3.02 5 c-2.32 0 -2.86 -1.38 -2.98 -5.08 z M21.4 5.800000000000001 l0 -1.8 l6 0 l0 1.8 l-2 0 l0 14.2 l-2 0 l0 -14.2 l-2 0 z M33 20 l0 -16 l4.6 0 l0 1.6 l-2.6 0 l0 5.2 l2.2 0 l0 1.6 l-2.2 0 l0 5.6 l2.6 0 l0 2 l-4.6 0 z M39 20 l0 -8.4 c0 -5.58 0 -7.78 3 -7.78 s3 2.2 3 7.78 l0 8.4 l-2 0 l0 -4.6 l-2 0 l0 4.6 l-2 0 z M41 13.8 l2 0 l0 -2.2 c0 -5.2 0 -6.18 -1 -6.18 s-1 0.98 -1 6.18 l0 2.2 z M46.6 15.120000000000001 l2.02 0 c0.04 2.58 0.24 3.08 0.96 3.08 c0.98 0 0.98 -0.82 0.98 -3 c0 -3.2 -3.96 -2.34 -3.96 -6.6 c0 -2.5 0 -4.8 3 -4.8 c2.22 0 2.82 1.26 2.96 4.28 l-2 0 c-0.08 -2.18 -0.32 -2.68 -0.96 -2.68 c-0.98 0 -0.98 1.08 -0.98 3.2 c0 3.1 3.98 2 3.98 6.6 c0 2.8 0 5 -3.02 5 c-2.32 0 -2.86 -1.38 -2.98 -5.08 z M53.400000000000006 4 l2 0 l1.2 6.16 l0.2 0 l1.2 -6.16 l2 0 l-2.3 9.04 l0 6.96 l-2 0 l0 -6.96 z"></path></g>
			</g>
		</svg>
	